#!OML:ASF H:\MichaelJackson\Top Level 1\Subject 1\Session 1\male.ASF
:FULLY-SPECIFIED
:DEGREES
564
root 4.0606 16.0613 22.6895 -356.347 8.32467 2.5001
lowerback 6.68826 -0.923219 -2.16445
upperback 2.13653 -1.38446 -1.04773
thorax -1.52048 -0.687543 0.245558
lowerneck -2.81922 -3.21706 0.695257
upperneck -0.57669 -4.32226 2.54788
head 0.328187 -2.14806 0.610743
rclavicle -9.34288e-015 1.61016e-014
rhumerus -49.4788 1.0085 -92.1451
rradius 64.3968
rwrist 4.65182
rhand -33.2421 -24.9982
rfingers 7.12502
rthumb -6.44791 -414.88
lclavicle -9.34288e-015 1.61016e-014
lhumerus -33.0471 -29.0013 89.3227
lradius 72.832
lwrist 23.0221
lhand -21.1411 6.1264
lfingers 7.12502
lthumb 5.23808 36.0417
rfemur -33.0276 -7.4536 18.9532
rtibia 61.5174
rfoot -22.4482 -2.41503
rtoes 13.1075
lfemur -39.1072 17.2812 -24.9783
ltibia 77.3503
lfoot -7.03665 1.02454
ltoes 11.584
565
root 4.04755 16.0597 22.8487 -356.758 8.60503 1.75709
lowerback 6.56905 -0.882494 -1.65595
upperback 2.10639 -1.29074 -0.818135
thorax -1.49342 -0.641274 0.187622
lowerneck -2.92287 -3.33319 0.702061
upperneck -0.505467 -4.48094 2.61501
head 0.370136 -2.22529 0.625722
rclavicle -4.5472e-015 -3.37934e-015
rhumerus -49.2543 1.53536 -92.0643
rradius 64.1559
rwrist 5.47922
rhand -32.8247 -25.7196
rfingers 7.12502
rthumb -6.04496 -415.613
lclavicle -4.5472e-015 -3.37934e-015
lhumerus -33.2825 -28.0788 89.3173
lradius 72.534
lwrist 22.6922
lhand -21.5746 5.91589
lfingers 7.12502
lthumb 4.81956 35.8411
rfemur -31.2292 -7.22656 19.8321
rtibia 60.3836
rfoot -23.7915 -2.81118
rtoes 15.5051
lfemur -40.45 18.0076 -24.4443
ltibia 79.65
lfoot -4.84418 1.96669
ltoes 17.8077
566
root 4.03725 16.0561 23.0058 -357.135 8.82228 1.00135
lowerback 6.45566 -0.828136 -1.11522
upperback 2.06651 -1.17843 -0.587347
thorax -1.47945 -0.585553 0.111628
lowerneck -3.02535 -3.44896 0.706527
upperneck -0.480165 -4.63787 2.65657
head 0.397339 -2.30233 0.633593
rclavicle 9.7156e-015 1.07344e-014
rhumerus -48.934 2.129 -91.9776
rradius 63.9015
rwrist 6.20911
rhand -32.1961 -26.3911
rfingers 7.12502
rthumb -5.43804 -416.301
lclavicle 9.7156e-015 1.07344e-014
lhumerus -33.5795 -27.1151 89.3081
lradius 72.2015
lwrist 22.2971
lhand -22.0716 5.69094
lfingers 7.12502
lthumb 4.3396 35.6265
rfemur -29.5345 -7.14363 20.7455
rtibia 59.2596
rfoot -25.0127 -3.12007
rtoes 17.582
lfemur -41.7946 18.7098 -23.9656
ltibia 81.662
lfoot -3.44172 2.96783
ltoes 23.2875
567
root 4.02985 16.0507 23.1606 -357.474 8.95436 0.26125
lowerback 6.35138 -0.752124 -0.572651
upperback 2.01709 -1.03867 -0.360737
thorax -1.47925 -0.516092 0.0285254
lowerneck -3.12905 -3.56489 0.703886
upperneck -0.493489 -4.79366 2.66984
head 0.412358 -2.37944 0.634224
rclavicle 2.88238e-015 -1.78906e-015
rhumerus -48.5191 2.78519 -91.8836
rradius 63.6493
rwrist 6.76117
rhand -31.4093 -26.9802
rfingers 7.12502
rthumb -4.67836 -416.909
lclavicle 2.88238e-015 -1.78906e-015
lhumerus -33.9257 -26.1047 89.293
lradius 71.8146
lwrist 21.8283
lhand -22.573 5.437
lfingers 7.12502
lthumb 3.85544 35.3819
rfemur -27.9791 -7.19917 21.6503
rtibia 58.2077
rfoot -26.0874 -3.34449
rtoes 19.1819
lfemur -43.1061 19.3786 -23.5642
ltibia 83.3054
lfoot -2.81477 3.8136
ltoes 27.5608
568
root 4.02529 16.0437 23.3127 -357.77 8.98116 -0.434292
lowerback 6.26003 -0.646773 -0.0627818
upperback 1.95882 -0.863112 -0.144098
thorax -1.49335 -0.428852 -0.0487815
lowerneck -3.23281 -3.68056 0.693562
upperneck -0.535294 -4.94792 2.65833
head 0.418142 -2.45631 0.628743
rclavicle 2.06488e-014 6.55989e-015
rhumerus -48.0082 3.49519 -91.7793
rradius 63.3989
rwrist 7.12626
rhand -30.5246 -27.4817
rfingers 7.12502
rthumb -3.82408 -417.427
lclavicle 2.06488e-014 6.55989e-015
lhumerus -34.312 -25.0446 89.2701
lradius 71.3585
lwrist 21.2949
lhand -23.0611 5.14314
lfingers 7.12502
lthumb 3.38405 35.096
rfemur -26.5898 -7.37142 22.5
rtibia 57.2826
rfoot -26.991 -3.49282
rtoes 20.1549
lfemur -44.3604 20.0065 -23.2589
ltibia 84.5119
lfoot -2.83992 4.30925
ltoes 30.3478
569
root 4.0231 16.0359 23.4617 -358.018 8.88914 -1.07286
lowerback 6.18733 -0.510929 0.388435
upperback 1.89394 -0.651241 0.0658313
thorax -1.52199 -0.323683 -0.102358
lowerneck -3.34691 -3.79031 0.672488
upperneck -0.592145 -5.09347 2.62189
head 0.42046 -2.52911 0.617401
rclavicle -8.4732e-015 6.26172e-015
rhumerus -47.3957 4.26684 -91.6615
rradius 63.1376
rwrist 7.34706
rhand -29.5838 -27.8764
rfingers 7.12502
rthumb -2.91556 -417.836
lclavicle -8.4732e-015 6.26172e-015
lhumerus -34.7232 -23.9176 89.2332
lradius 70.8191
lwrist 20.706
lhand -23.5225 4.83495
lfingers 7.12502
lthumb 2.93854 34.7945
rfemur -25.3812 -7.62246 23.2674
rtibia 56.5218
rfoot -27.7027 -3.52284
rtoes 20.6616
lfemur -45.544 20.5857 -23.0478
ltibia 85.2299
lfoot -3.30738 4.36385
ltoes 31.7556
570
root 4.02304 16.0279 23.6077 -358.219 8.66805 -1.64576
lowerback 6.13554 -0.340055 0.770485
upperback 1.82502 -0.397224 0.264658
thorax -1.56387 -0.197709 -0.131318
lowerneck -3.48036 -3.89507 0.637325
upperneck -0.652125 -5.23192 2.57467
head 0.424973 -2.59832 0.604712
rclavicle -4.62174e-015 -1.75924e-014
rhumerus -46.6758 5.08587 -91.5298
rradius 62.8448
rwrist 7.51649
rhand -28.6612 -28.1414
rfingers 7.12502
rthumb -2.02453 -418.112
lclavicle -4.62174e-015 -1.75924e-014
lhumerus -35.1457 -22.7232 89.1713
lradius 70.1851
lwrist 20.0814
lhand -23.9401 4.49777
lfingers 7.12502
lthumb 2.53521 34.4624
rfemur -24.3508 -7.92131 23.9346
rtibia 55.9424
rfoot -28.2298 -3.43548
rtoes 20.6789
lfemur -46.6516 21.1154 -22.9277
ltibia 85.4302
lfoot -4.03229 3.95262
ltoes 31.8903
